<svg xmlns="http://www.w3.org/2000/svg" width="1600" height="500" viewBox="0 0 1600 500" role="img" aria-labelledby="title desc" data-version="2">
  <title id="title">Fabric Atlas</title>
  <desc id="desc">Open-source governance, lineage and access for Microsoft Fabric workspaces.</desc>
  <defs>
    <linearGradient id="background" x1="0" y1="0" x2="1" y2="1">
      <stop offset="0" stop-color="#0b1117"/>
      <stop offset="0.52" stop-color="#111b24"/>
      <stop offset="1" stop-color="#0a1820"/>
    </linearGradient>
    <linearGradient id="brand" x1="0" y1="1" x2="1" y2="0">
      <stop offset="0" stop-color="#22d3d0"/>
      <stop offset="1" stop-color="#1677c8"/>
    </linearGradient>
    <linearGradient id="flow" x1="0" y1="0" x2="1" y2="0">
      <stop offset="0" stop-color="#a78bfa"/>
      <stop offset="0.52" stop-color="#5cb3ff"/>
      <stop offset="1" stop-color="#22d3d0"/>
    </linearGradient>
    <radialGradient id="glow" cx="75%" cy="42%" r="55%">
      <stop offset="0" stop-color="#1677c8" stop-opacity="0.22"/>
      <stop offset="0.48" stop-color="#22d3d0" stop-opacity="0.07"/>
      <stop offset="1" stop-color="#0b1117" stop-opacity="0"/>
    </radialGradient>
    <pattern id="grid" width="32" height="32" patternUnits="userSpaceOnUse">
      <path d="M32 0H0V32" fill="none" stroke="#88a2b5" stroke-opacity="0.08"/>
    </pattern>
    <filter id="shadow" x="-30%" y="-30%" width="160%" height="160%">
      <feDropShadow dx="0" dy="10" stdDeviation="12" flood-color="#000" flood-opacity="0.35"/>
    </filter>
    <filter id="lineGlow" x="-30%" y="-100%" width="160%" height="300%">
      <feGaussianBlur stdDeviation="3" result="blur"/>
      <feMerge>
        <feMergeNode in="blur"/>
        <feMergeNode in="SourceGraphic"/>
      </feMerge>
    </filter>
    <marker id="arrow" markerWidth="9" markerHeight="9" refX="8" refY="4.5" orient="auto">
      <path d="M0 0L9 4.5L0 9Z" fill="#54c8e8"/>
    </marker>
  </defs>

  <rect width="1600" height="500" rx="28" fill="url(#background)"/>
  <rect width="1600" height="500" rx="28" fill="url(#grid)"/>
  <rect width="1600" height="500" rx="28" fill="url(#glow)"/>
  <path d="M0 430C240 350 360 470 590 400C830 326 1030 446 1250 374C1390 328 1494 348 1600 304V500H0Z" fill="#071016" fill-opacity="0.65"/>

  <g transform="translate(86 76)">
    <rect width="76" height="76" rx="22" fill="url(#brand)" filter="url(#shadow)"/>
    <path d="M38 16L59 28V52L38 64L17 52V28L38 16Z" fill="none" stroke="#fff" stroke-width="3"/>
    <path d="M28 48L34 31L51 27L45 44L28 48Z" fill="none" stroke="#fff" stroke-width="2.8" stroke-linejoin="round"/>
    <circle cx="39" cy="38" r="3.5" fill="#fff"/>
  </g>

  <text x="184" y="121" fill="#f7f9fb" font-family="Segoe UI, Arial, sans-serif" font-size="58" font-weight="750" letter-spacing="-1.8">Fabric Atlas</text>
  <text x="88" y="188" fill="#b7c6d1" font-family="Segoe UI, Arial, sans-serif" font-size="25" font-weight="400">Governance map for Microsoft Fabric workspaces</text>
  <text x="88" y="231" fill="#7f95a5" font-family="Segoe UI, Arial, sans-serif" font-size="17">Metadata only. Fabric native. Built with React and Rayfin.</text>

  <g font-family="Segoe UI, Arial, sans-serif" font-size="13" font-weight="650">
    <g transform="translate(88 278)">
      <rect width="126" height="34" rx="17" fill="#153126" stroke="#38d18b" stroke-opacity="0.35"/>
      <circle cx="19" cy="17" r="4" fill="#38d18b"/>
      <text x="32" y="22" fill="#79e8ae">OPEN SOURCE</text>
    </g>
    <g transform="translate(226 278)">
      <rect width="148" height="34" rx="17" fill="#13263a" stroke="#5cb3ff" stroke-opacity="0.36"/>
      <circle cx="19" cy="17" r="4" fill="#5cb3ff"/>
      <text x="32" y="22" fill="#8bc9f5">RAYFIN DATA APP</text>
    </g>
    <g transform="translate(386 278)">
      <rect width="138" height="34" rx="17" fill="#251d3b" stroke="#a78bfa" stroke-opacity="0.38"/>
      <circle cx="19" cy="17" r="4" fill="#a78bfa"/>
      <text x="32" y="22" fill="#c5b4fa">METADATA ONLY</text>
    </g>
  </g>

  <g transform="translate(88 350)" font-family="Segoe UI, Arial, sans-serif">
    <g>
      <rect width="122" height="54" rx="14" fill="#151f28" stroke="#35414a"/>
      <text x="18" y="23" fill="#22d3d0" font-size="12" font-weight="700">CATALOG</text>
      <text x="18" y="41" fill="#a9b4bd" font-size="12">Items and objects</text>
    </g>
    <g transform="translate(136)">
      <rect width="122" height="54" rx="14" fill="#151f28" stroke="#35414a"/>
      <text x="18" y="23" fill="#a78bfa" font-size="12" font-weight="700">LINEAGE</text>
      <text x="18" y="41" fill="#a9b4bd" font-size="12">Impact paths</text>
    </g>
    <g transform="translate(272)">
      <rect width="122" height="54" rx="14" fill="#151f28" stroke="#35414a"/>
      <text x="18" y="23" fill="#5cb3ff" font-size="12" font-weight="700">ACCESS</text>
      <text x="18" y="41" fill="#a9b4bd" font-size="12">Effective rights</text>
    </g>
    <g transform="translate(408)">
      <rect width="122" height="54" rx="14" fill="#151f28" stroke="#35414a"/>
      <text x="18" y="23" fill="#38d18b" font-size="12" font-weight="700">OPERATE</text>
      <text x="18" y="41" fill="#a9b4bd" font-size="12">Jobs and context</text>
    </g>
  </g>

  <g transform="translate(650 54)" font-family="Segoe UI, Arial, sans-serif">
    <g fill="#7f95a5" font-size="11" font-weight="700" letter-spacing="1.4">
      <text x="18" y="20">ORCHESTRATE</text>
      <text x="196" y="20">TRANSFORM</text>
      <text x="374" y="20">STORE</text>
      <text x="550" y="20">MODEL</text>
      <text x="726" y="20">CONSUME</text>
    </g>
    <g stroke="#35414a" stroke-width="1">
      <path d="M18 34H142"/>
      <path d="M196 34H320"/>
      <path d="M374 34H498"/>
      <path d="M550 34H674"/>
      <path d="M726 34H850"/>
    </g>

    <g fill="none" stroke="url(#flow)" stroke-width="3" stroke-dasharray="5 8" marker-end="url(#arrow)" filter="url(#lineGlow)">
      <path d="M167 151C179 151 184 218 200 218"/>
      <path d="M345 218C357 218 362 151 378 151"/>
      <path d="M523 151C535 151 540 218 556 218"/>
      <path d="M699 218C711 218 716 151 734 151"/>
      <path d="M699 218C717 218 716 298 734 298"/>
    </g>

    <g filter="url(#shadow)">
      <g transform="translate(18 122)">
        <rect width="150" height="58" rx="14" fill="#17212b" stroke="#7d67d9"/>
        <rect x="12" y="11" width="36" height="36" rx="9" fill="#7c5cff"/>
        <text x="30" y="34" text-anchor="middle" fill="#fff" font-size="12" font-weight="700">PL</text>
        <text x="58" y="25" fill="#f7f9fb" font-size="12" font-weight="650">Pipeline</text>
        <text x="58" y="42" fill="#7f95a5" font-size="9">ORCHESTRATE</text>
      </g>
      <g transform="translate(196 189)">
        <rect width="150" height="58" rx="14" fill="#17212b" stroke="#d87344"/>
        <rect x="12" y="11" width="36" height="36" rx="9" fill="#ef7a45"/>
        <text x="30" y="34" text-anchor="middle" fill="#fff" font-size="12" font-weight="700">NB</text>
        <text x="58" y="25" fill="#f7f9fb" font-size="12" font-weight="650">Notebook</text>
        <text x="58" y="42" fill="#7f95a5" font-size="9">TRANSFORM</text>
      </g>
      <g transform="translate(374 122)">
        <rect width="150" height="58" rx="14" fill="#17212b" stroke="#2f9e6f"/>
        <rect x="12" y="11" width="36" height="36" rx="9" fill="#2f9e6f"/>
        <text x="30" y="34" text-anchor="middle" fill="#fff" font-size="12" font-weight="700">LH</text>
        <text x="58" y="25" fill="#f7f9fb" font-size="12" font-weight="650">Lakehouse</text>
        <text x="58" y="42" fill="#7f95a5" font-size="9">STORE</text>
      </g>
      <g transform="translate(550 189)">
        <rect width="150" height="58" rx="14" fill="#17212b" stroke="#d9a520"/>
        <rect x="12" y="11" width="36" height="36" rx="9" fill="#d9a520"/>
        <text x="30" y="34" text-anchor="middle" fill="#fff" font-size="12" font-weight="700">SM</text>
        <text x="58" y="25" fill="#f7f9fb" font-size="12" font-weight="650">Model</text>
        <text x="58" y="42" fill="#7f95a5" font-size="9">SEMANTIC</text>
      </g>
      <g transform="translate(726 122)">
        <rect width="150" height="58" rx="14" fill="#17212b" stroke="#eab308"/>
        <rect x="12" y="11" width="36" height="36" rx="9" fill="#eab308"/>
        <text x="30" y="34" text-anchor="middle" fill="#fff" font-size="12" font-weight="700">RP</text>
        <text x="58" y="25" fill="#f7f9fb" font-size="12" font-weight="650">Report</text>
        <text x="58" y="42" fill="#7f95a5" font-size="9">CONSUME</text>
      </g>
      <g transform="translate(726 269)">
        <rect width="150" height="58" rx="14" fill="#17212b" stroke="#eab308"/>
        <rect x="12" y="11" width="36" height="36" rx="9" fill="#eab308"/>
        <text x="30" y="34" text-anchor="middle" fill="#fff" font-size="12" font-weight="700">RP</text>
        <text x="58" y="25" fill="#f7f9fb" font-size="12" font-weight="650">Report</text>
        <text x="58" y="42" fill="#7f95a5" font-size="9">CONSUME</text>
      </g>
    </g>

    <g transform="translate(376 344)">
      <rect width="454" height="58" rx="16" fill="#0f1820" stroke="#35414a"/>
      <circle cx="25" cy="29" r="6" fill="#38d18b"/>
      <text x="44" y="25" fill="#f7f9fb" font-size="13" font-weight="650">One workspace. One trusted snapshot.</text>
      <text x="44" y="43" fill="#7f95a5" font-size="11">Catalog · lineage · access · jobs · team context</text>
    </g>
  </g>
</svg>
